<svg width="112" height="84" viewBox="0 0 112 84" fill="none" xmlns="http://www.w3.org/2000/svg">
<path d="M102.667 0H9.33333C4.2 0 0 4.2 0 9.33333V74.6667C0 79.8 4.2 84 9.33333 84H102.667C107.8 84 112 79.8 112 74.6667V9.33333C112 4.2 107.8 0 102.667 0ZM97.0667 18.6667L59.2667 48.5333C57.4 49.9333 54.6 49.9333 52.2667 48.5333L14.9333 19.1333C13.5333 18.2 13.0667 15.8667 14.4667 14C15.8667 12.6 17.7333 12.1333 19.6 13.0667L56 37.3333L92.8667 13.0667C94.7333 12.1333 97.0667 12.6 98 14C98.9333 15.4 98.4667 17.7333 97.0667 18.6667Z" fill="#B367FF"/>
</svg>
