<svg width="140" height="140" viewBox="0 0 140 140" fill="none" xmlns="http://www.w3.org/2000/svg">
<path d="M120.312 10.9375H19.9631C14.9756 10.9375 10.9375 14.9756 10.9375 19.9631V120.312C10.9375 125.143 14.8575 129.062 19.6875 129.062H120.312C125.143 129.062 129.062 125.143 129.062 120.312V19.6875C129.062 14.8575 125.143 10.9375 120.312 10.9375Z" fill="white"/>
<path d="M128.826 17.7362C128.196 17.5919 127.549 17.5 126.875 17.5H21.875C19.46 17.5 17.5 19.46 17.5 21.875V126.875C17.5 127.549 17.5919 128.196 17.7362 128.826C18.3662 128.971 19.0137 129.062 19.6875 129.062H76.5625V85.3125H59.0625V67.8125H76.5625V45.9375C76.5625 36.2731 84.3981 28.4375 94.0625 28.4375H111.562V45.9375H98.4375C96.0181 45.9375 94.0625 47.8931 94.0625 50.3125V67.8125H111.562L109.375 85.3125H94.0625V129.062H120.312C125.143 129.062 129.062 125.143 129.062 120.312V19.6875C129.062 19.0137 128.971 18.3662 128.826 17.7362Z" fill="#73C2E6"/>
<path d="M67.8125 131.25H19.6875C13.6588 131.25 8.75 126.346 8.75 120.312V41.5625C8.75 40.355 9.73 39.375 10.9375 39.375C12.145 39.375 13.125 40.355 13.125 41.5625V120.312C13.125 123.931 16.0694 126.875 19.6875 126.875H67.8125C69.02 126.875 70 127.855 70 129.062C70 130.27 69.02 131.25 67.8125 131.25Z" fill="#455A64"/>
<path d="M120.312 131.25H94.0625C92.855 131.25 91.875 130.27 91.875 129.062V85.3125C91.875 84.105 92.855 83.125 94.0625 83.125H107.446L109.086 70H94.0625C92.855 70 91.875 69.02 91.875 67.8125V50.3125C91.875 46.6944 94.8194 43.75 98.4375 43.75H109.375V30.625H94.0625C85.6188 30.625 78.75 37.4937 78.75 45.9375V67.8125C78.75 69.02 77.77 70 76.5625 70H61.25V83.125H76.5625C77.77 83.125 78.75 84.105 78.75 85.3125V129.062C78.75 130.27 77.77 131.25 76.5625 131.25C75.355 131.25 74.375 130.27 74.375 129.062V87.5H59.0625C57.855 87.5 56.875 86.52 56.875 85.3125V67.8125C56.875 66.605 57.855 65.625 59.0625 65.625H74.375V45.9375C74.375 35.0831 83.2081 26.25 94.0625 26.25H111.562C112.77 26.25 113.75 27.23 113.75 28.4375V45.9375C113.75 47.145 112.77 48.125 111.562 48.125H98.4375C97.23 48.125 96.25 49.1094 96.25 50.3125V65.625H111.562C112.192 65.625 112.787 65.8962 113.203 66.3644C113.619 66.8325 113.811 67.4625 113.732 68.0881L111.545 85.5881C111.409 86.6819 110.478 87.5 109.375 87.5H96.25V126.875H120.312C123.931 126.875 126.875 123.931 126.875 120.312V19.6875C126.875 16.0694 123.931 13.125 120.312 13.125H19.6875C16.0694 13.125 13.125 16.0694 13.125 19.6875V24.0625C13.125 25.27 12.145 26.25 10.9375 26.25C9.73 26.25 8.75 25.27 8.75 24.0625V19.6875C8.75 13.6544 13.6588 8.75 19.6875 8.75H120.312C126.341 8.75 131.25 13.6544 131.25 19.6875V120.312C131.25 126.346 126.341 131.25 120.312 131.25Z" fill="#455A64"/>
<path d="M13.125 32.8125C13.125 34.0156 12.1406 35 10.9375 35C9.73438 35 8.75 34.0156 8.75 32.8125C8.75 31.6094 9.73438 30.625 10.9375 30.625C12.1406 30.625 13.125 31.6094 13.125 32.8125Z" fill="#455A64"/>
</svg>
