<svg width="140" height="140" viewBox="0 0 140 140" fill="none" xmlns="http://www.w3.org/2000/svg">
<path d="M70.1367 5.46875C34.5625 5.46875 5.74219 34.2891 5.74219 69.8633C5.74219 105.438 34.5625 134.258 70.1367 134.258C105.711 134.258 134.531 105.438 134.531 69.8633C134.531 34.2891 105.711 5.46875 70.1367 5.46875ZM70 125.918C39.1289 125.918 14.082 100.871 14.082 70C14.082 39.1289 39.1289 14.082 70 14.082C100.871 14.082 125.918 39.1289 125.918 70C125.918 100.871 100.871 125.918 70 125.918Z" fill="#F77737"/>
<path opacity="0.2" d="M115.691 24.3359L109.566 30.4609C119.684 40.5781 125.918 54.5508 125.918 70C125.918 100.871 100.871 125.918 70 125.918C54.5781 125.918 40.5781 119.656 30.4609 109.566L24.6094 115.418C49.7656 140.574 90.5352 140.574 115.664 115.418C140.793 90.2617 140.82 49.4922 115.691 24.3359Z" fill="white"/>
<path d="M70 119.219C97.1828 119.219 119.219 97.1828 119.219 70C119.219 42.8172 97.1828 20.7812 70 20.7812C42.8172 20.7812 20.7812 42.8172 20.7812 70C20.7812 97.1828 42.8172 119.219 70 119.219Z" fill="#F77737"/>
<path fill-rule="evenodd" clip-rule="evenodd" d="M48.7812 41.4531H91.1914C95.2109 41.4531 98.5195 44.7617 98.5195 48.7812V91.1914C98.5195 95.2109 95.2109 98.5195 91.1914 98.5195H48.7812C44.7617 98.5195 41.4531 95.2109 41.4531 91.1914V48.7812C41.4531 44.7617 44.7617 41.4531 48.7812 41.4531ZM83.043 47.7969C81.6211 47.7969 80.4727 48.9453 80.4727 50.3672V56.5195C80.4727 57.9414 81.6211 59.0898 83.043 59.0898H89.4961C90.918 59.0898 92.0664 57.9414 92.0664 56.5195V50.3672C92.0664 48.9453 90.918 47.7969 89.4961 47.7969H83.043ZM92.0938 65.5976H87.0625C87.5273 67.1562 87.8008 68.7969 87.8008 70.4922C87.8008 79.9804 79.8711 87.6914 70.0547 87.6914C60.2656 87.6914 52.3086 80.0078 52.3086 70.4922C52.3086 68.7969 52.5547 67.1562 53.0469 65.5976H47.7969V89.7148C47.7969 90.9726 48.8086 91.9844 50.0664 91.9844H89.8242C91.082 91.9844 92.0938 90.9726 92.0938 89.7148V65.5976ZM70.0547 58.7617C63.7109 58.7617 58.5977 63.7383 58.5977 69.8633C58.5977 75.9883 63.7383 80.9648 70.0547 80.9648C76.3984 80.9648 81.5117 75.9883 81.5117 69.8633C81.5117 63.7383 76.3984 58.7617 70.0547 58.7617Z" fill="#E6E7E8"/>
<path opacity="0.2" d="M35.0273 104.617C15.8047 85.3946 15.8047 54.2227 35.0273 35C54.25 15.7773 85.4219 15.7773 104.645 35" fill="white"/>
</svg>
