<svg width="110" height="110" viewBox="0 0 110 110" fill="none" xmlns="http://www.w3.org/2000/svg">
<path fill-rule="evenodd" clip-rule="evenodd" d="M32.325 0.33C38.19 0.0599999 40.06 0 55 0C69.94 0 71.81 0.0649999 77.67 0.33C83.53 0.595 87.53 1.53 91.03 2.885C94.695 4.27 98.02 6.435 100.77 9.235C103.57 11.98 105.73 15.3 107.11 18.97C108.47 22.47 109.4 26.47 109.67 32.32C109.94 38.195 110 40.065 110 55C110 69.94 109.935 71.81 109.67 77.675C109.405 83.525 108.47 87.525 107.11 91.025C105.73 94.6955 103.566 98.021 100.77 100.77C98.02 103.57 94.695 105.73 91.03 107.11C87.53 108.47 83.53 109.4 77.68 109.67C71.81 109.94 69.94 110 55 110C40.06 110 38.19 109.935 32.325 109.67C26.475 109.405 22.475 108.47 18.975 107.11C15.3046 105.73 11.9791 103.566 9.23 100.77C6.4319 98.0233 4.26657 94.6994 2.885 91.03C1.53 87.53 0.6 83.53 0.33 77.68C0.0599999 71.805 0 69.935 0 55C0 40.06 0.0649999 38.19 0.33 32.33C0.595 26.47 1.53 22.47 2.885 18.97C4.26861 15.3004 6.43559 11.9766 9.235 9.23C11.9802 6.43251 15.3024 4.26722 18.97 2.885C22.47 1.53 26.47 0.6 32.32 0.33H32.325ZM77.225 10.23C71.425 9.965 69.685 9.91 55 9.91C40.315 9.91 38.575 9.965 32.775 10.23C27.41 10.475 24.5 11.37 22.56 12.125C19.995 13.125 18.16 14.31 16.235 16.235C14.4102 18.0103 13.0059 20.1714 12.125 22.56C11.37 24.5 10.475 27.41 10.23 32.775C9.965 38.575 9.91 40.315 9.91 55C9.91 69.685 9.965 71.425 10.23 77.225C10.475 82.59 11.37 85.5 12.125 87.44C13.005 89.825 14.41 91.99 16.235 93.765C18.01 95.59 20.175 96.995 22.56 97.875C24.5 98.63 27.41 99.525 32.775 99.77C38.575 100.035 40.31 100.09 55 100.09C69.69 100.09 71.425 100.035 77.225 99.77C82.59 99.525 85.5 98.63 87.44 97.875C90.005 96.875 91.84 95.69 93.765 93.765C95.59 91.99 96.995 89.825 97.875 87.44C98.63 85.5 99.525 82.59 99.77 77.225C100.035 71.425 100.09 69.685 100.09 55C100.09 40.315 100.035 38.575 99.77 32.775C99.525 27.41 98.63 24.5 97.875 22.56C96.875 19.995 95.69 18.16 93.765 16.235C91.9896 14.4104 89.8285 13.0061 87.44 12.125C85.5 11.37 82.59 10.475 77.225 10.23V10.23ZM47.975 71.955C51.8983 73.5882 56.2669 73.8086 60.3346 72.5786C64.4024 71.3486 67.917 68.7446 70.278 65.2112C72.6391 61.6778 73.7003 57.4344 73.2802 53.2055C72.8602 48.9767 70.985 45.0249 67.975 42.025C66.0562 40.1074 63.7361 38.6391 61.1817 37.7257C58.6273 36.8124 55.9021 36.4768 53.2025 36.7431C50.5028 37.0094 47.8958 37.8709 45.569 39.2657C43.2423 40.6604 41.2537 42.5537 39.7465 44.8093C38.2393 47.0648 37.2509 49.6264 36.8526 52.3098C36.4542 54.9932 36.6558 57.7315 37.4427 60.3276C38.2296 62.9237 39.5824 65.313 41.4036 67.3236C43.2248 69.3342 45.4691 70.9159 47.975 71.955ZM35.01 35.01C37.6351 32.3849 40.7516 30.3025 44.1815 28.8818C47.6114 27.4611 51.2875 26.7299 55 26.7299C58.7125 26.7299 62.3886 27.4611 65.8185 28.8818C69.2484 30.3025 72.3649 32.3849 74.99 35.01C77.6151 37.6351 79.6975 40.7516 81.1182 44.1815C82.5389 47.6114 83.2701 51.2875 83.2701 55C83.2701 58.7125 82.5389 62.3886 81.1182 65.8185C79.6975 69.2484 77.6151 72.3649 74.99 74.99C69.6883 80.2917 62.4977 83.2701 55 83.2701C47.5023 83.2701 40.3117 80.2917 35.01 74.99C29.7083 69.6883 26.7299 62.4977 26.7299 55C26.7299 47.5023 29.7083 40.3117 35.01 35.01V35.01ZM89.54 30.94C90.1905 30.3263 90.7113 29.5884 91.0715 28.7699C91.4317 27.9513 91.6241 27.0688 91.6371 26.1747C91.6501 25.2805 91.4836 24.3927 91.1474 23.5641C90.8112 22.7354 90.3122 21.9826 89.6798 21.3502C89.0474 20.7178 88.2946 20.2188 87.466 19.8826C86.6373 19.5464 85.7495 19.3799 84.8553 19.3929C83.9612 19.406 83.0787 19.5983 82.2601 19.9585C81.4416 20.3187 80.7037 20.8395 80.09 21.49C78.8966 22.7551 78.2432 24.4356 78.2685 26.1747C78.2939 27.9137 78.996 29.5744 80.2258 30.8042C81.4556 32.034 83.1163 32.7361 84.8553 32.7615C86.5944 32.7868 88.2749 32.1334 89.54 30.94V30.94Z" fill="#F77737"/>
</svg>
