<svg width="568" height="423" viewBox="0 0 568 423" fill="none" xmlns="http://www.w3.org/2000/svg">
<g id="focus/rafiki">
<g id="Shadow">
<path id="path" d="M322.5 423C422.74 423 504 417.404 504 410.5C504 403.596 422.74 398 322.5 398C222.26 398 141 403.596 141 410.5C141 417.404 222.26 423 322.5 423Z" fill="#F5F5F5"/>
</g>
<g id="Butterflies">
<path id="Vector" d="M196.96 70.8751C195.381 63.7637 185.679 54.2213 180.101 50.6997C174.524 47.1781 173.922 63.4683 175.092 69.1256C176.262 74.7829 180.215 82.4963 184.18 84.3594C180.136 85.4954 169.559 95.7194 176.762 99.4682C183.964 103.217 193.018 98.1618 193.018 98.1618L196.96 70.8751Z" fill="#407BFF"/>
<path id="Vector_2" d="M208.002 108.306L207.774 107.17C209.29 106.898 210.7 106.214 211.853 105.194L212.614 106.046C211.31 107.204 209.716 107.985 208.002 108.306Z" fill="#407BFF"/>
<path id="Vector_3" d="M215.636 100.422L214.5 100.218C214.981 96.4435 214.266 92.6132 212.455 89.2668L213.454 88.7329C215.397 92.3014 216.161 96.3933 215.636 100.422Z" fill="#407BFF"/>
<path id="Vector_4" d="M198.039 71.034C201.844 64.6611 214.17 58.1972 220.623 56.3569C227.075 54.5166 222.599 71.6816 219.305 76.4641C216.01 81.2467 212.023 87.0289 207.615 87.7105C211.114 89.8917 215.306 102.808 207.229 104.41C199.152 106.011 193.04 98.1617 193.04 98.1617L198.039 71.034Z" fill="#407BFF"/>
<path id="Vector_5" d="M192.086 98.707L195.165 69.7731C195.183 69.2929 195.39 68.8394 195.741 68.5115C196.092 68.1837 196.559 68.0083 197.039 68.0236L198.88 68.2849C199.108 68.3396 199.323 68.4407 199.511 68.5821C199.699 68.7234 199.856 68.9019 199.973 69.1064C200.089 69.311 200.162 69.5372 200.186 69.7711C200.211 70.005 200.188 70.2416 200.118 70.466L193.768 98.9456C193.495 100.172 191.984 99.968 192.086 98.707Z" fill="#263238"/>
<path id="Vector_6" d="M197.505 69.8298L196.823 69.6253C196.823 69.5458 199.391 60.6623 193.836 57.4815L194.188 56.8567C200.231 60.3215 197.664 69.4436 197.505 69.8298Z" fill="#263238"/>
<path id="Vector_7" d="M198.8 69.932L198.096 69.8411C198.164 69.3072 199.868 56.8567 206.832 56.5386V57.2429C200.538 57.5383 198.857 69.8071 198.8 69.932Z" fill="#263238"/>
<path id="Vector_8" d="M125.301 132.401C125.38 127.857 129.515 121.2 132.117 118.61C134.718 116.02 139.558 125.017 139.535 128.618C139.512 132.219 135.479 138.41 133.559 139.853C135.831 140.262 142.568 145.863 139.137 148.725C135.707 151.588 130.345 149.1 130.345 149.1L125.301 132.401Z" fill="#407BFF"/>
<path id="Vector_9" opacity="0.3" d="M125.301 132.401C125.38 127.857 129.515 121.2 132.117 118.61C134.718 116.02 139.558 125.017 139.535 128.618C139.512 132.219 135.479 138.41 133.559 139.853C135.831 140.262 142.568 145.863 139.137 148.725C135.707 151.588 130.345 149.1 130.345 149.1L125.301 132.401Z" fill="#FAFAFA"/>
<path id="Vector_10" d="M124.744 132.571C122.029 128.89 114.77 125.755 111.112 125.096C107.454 124.437 109.306 134.968 111.578 137.706C113.85 140.444 118.996 143.556 121.416 143.659C119.791 145.272 118.951 153.61 123.426 154.019C127.902 154.428 130.311 149.1 130.311 149.1L124.744 132.571Z" fill="#407BFF"/>
<path id="Vector_11" opacity="0.3" d="M124.744 132.571C122.029 128.89 114.77 125.755 111.112 125.096C107.454 124.437 109.306 134.968 111.578 137.706C113.85 140.444 118.996 143.556 121.416 143.659C119.791 145.272 118.951 153.61 123.426 154.019C127.902 154.428 130.311 149.1 130.311 149.1L124.744 132.571Z" fill="#FAFAFA"/>
<path id="Vector_12" d="M130.924 149.361L126.505 131.526C126.48 131.378 126.426 131.236 126.347 131.109C126.267 130.982 126.163 130.872 126.04 130.786C125.918 130.699 125.779 130.637 125.633 130.605C125.486 130.572 125.335 130.568 125.187 130.594L124.051 130.912C123.779 131.032 123.565 131.254 123.454 131.53C123.344 131.806 123.346 132.115 123.46 132.389L129.879 149.656C130.163 150.395 131.117 150.134 130.924 149.361Z" fill="#263238"/>
<path id="Vector_13" d="M125.051 131.776C124.915 131.492 121.768 124.574 125.255 121.893L125.539 122.245C122.325 124.71 125.426 131.526 125.46 131.594L125.051 131.776Z" fill="#263238"/>
<path id="Vector_14" d="M124.222 131.923C124.222 131.923 122.972 125.55 118.973 125.903V125.46C123.37 125.051 124.653 131.571 124.653 131.844L124.222 131.923Z" fill="#263238"/>
<path id="Vector_15" d="M216.249 173.217C216.249 169.343 212.682 163.868 210.467 161.778C208.252 159.687 204.048 167.571 204.048 170.638C204.048 173.706 207.456 178.795 209.138 179.942C207.184 180.385 201.367 185.463 204.31 187.735C207.252 190.007 211.864 187.656 211.864 187.656L216.249 173.217Z" fill="#407BFF"/>
<path id="Vector_16" opacity="0.7" d="M216.249 173.217C216.249 169.343 212.682 163.868 210.467 161.778C208.252 159.687 204.048 167.571 204.048 170.638C204.048 173.706 207.456 178.795 209.138 179.942C207.184 180.385 201.367 185.463 204.31 187.735C207.252 190.007 211.864 187.656 211.864 187.656L216.249 173.217Z" fill="#FAFAFA"/>
<path id="Vector_17" d="M215.34 173.217C217.34 170.07 223.133 167.764 226.098 167.424C229.063 167.083 228.211 176.512 226.507 178.784C224.803 181.056 220.759 183.543 218.76 183.464C220.214 185.043 221.429 192.665 217.76 192.711C214.091 192.756 211.773 187.747 211.773 187.747L215.34 173.217Z" fill="#407BFF"/>
<path id="Vector_18" opacity="0.7" d="M215.34 173.217C217.34 170.07 223.133 167.764 226.098 167.424C229.063 167.083 228.211 176.512 226.507 178.784C224.803 181.056 220.759 183.543 218.76 183.464C220.214 185.043 221.429 192.665 217.76 192.711C214.091 192.756 211.773 187.747 211.773 187.747L215.34 173.217Z" fill="#FAFAFA"/>
<path id="Vector_19" d="M211.296 187.906L215.158 170.082C215.295 169.423 215.829 168.946 216.294 169.15L217.271 169.468C217.527 169.602 217.721 169.828 217.816 170.1C217.911 170.372 217.899 170.67 217.783 170.934L212.171 188.201C212 188.939 211.171 188.678 211.296 187.906Z" fill="#263238"/>
<path id="Vector_20" d="M216.488 170.298L216.101 170.15C216.101 170.07 218.85 163.243 216.033 160.755L216.306 160.448C219.35 163.118 216.601 170.014 216.488 170.298Z" fill="#263238"/>
<path id="Vector_21" d="M217.215 170.468L216.806 170.4C216.806 170.127 217.942 163.584 221.827 164.027V164.436C218.294 164.095 217.226 170.4 217.215 170.468Z" fill="#263238"/>
</g>
<g id="Character">
<path id="Vector_22" d="M358.976 135.4L357.431 129.811L348.911 136.979C350.57 138.197 352.3 139.317 354.091 140.33C354.738 140.695 355.502 140.793 356.22 140.602C356.937 140.411 357.552 139.946 357.931 139.308L358.624 138.172C358.867 137.757 359.023 137.298 359.084 136.822C359.144 136.345 359.107 135.862 358.976 135.4Z" fill="#B55B52"/>
<path id="Vector_23" d="M349.547 123.767L345.662 131.878L348.934 136.979L357.454 129.811L349.547 123.767Z" fill="#B55B52"/>
<path id="Vector_24" d="M362.723 112.04L340.551 109.172C338.012 108.844 335.688 110.635 335.36 113.174L333.652 126.378C333.323 128.917 335.115 131.241 337.654 131.569L359.826 134.437C362.364 134.765 364.688 132.973 365.017 130.435L366.725 117.231C367.053 114.692 365.261 112.368 362.723 112.04Z" fill="#263238"/>
<path id="Vector_25" d="M378.765 175.205C373.551 175.205 363.929 170.786 351.501 160.653C337.994 149.6 339.278 140.921 340.209 134.525C340.662 132.537 340.72 130.48 340.38 128.47L341.572 128.141C341.972 130.316 341.926 132.55 341.436 134.707C340.493 141.091 339.323 149.043 352.285 159.699C368.814 173.229 379.254 175.671 381.378 173.092C382.752 171.434 380.844 166.833 373.426 160.596C365.11 153.667 364.69 143.056 364.395 135.32C364.419 133.03 364.187 130.743 363.702 128.504L364.838 128.129C365.374 130.48 365.629 132.886 365.599 135.298C365.894 142.807 366.28 153.087 374.187 159.665C381.435 165.697 384.547 171.138 382.309 173.853C381.854 174.325 381.3 174.69 380.688 174.923C380.075 175.157 379.419 175.253 378.765 175.205Z" fill="#263238"/>
<path id="Vector_26" d="M358.51 116.27L352.08 114.145C351.718 114.012 351.411 113.762 351.205 113.435C351 113.109 350.908 112.723 350.944 112.339L351.444 108.408C351.467 108.24 351.526 108.079 351.619 107.937C351.711 107.795 351.835 107.675 351.98 107.587C352.125 107.499 352.287 107.444 352.456 107.427C352.625 107.41 352.796 107.431 352.955 107.488L359.385 109.613C359.746 109.748 360.052 109.998 360.258 110.324C360.463 110.65 360.555 111.035 360.521 111.419L360.01 115.349C359.987 115.516 359.928 115.676 359.836 115.817C359.744 115.958 359.622 116.077 359.478 116.165C359.335 116.253 359.173 116.308 359.006 116.326C358.839 116.344 358.669 116.325 358.51 116.27Z" fill="#263238"/>
<path id="Vector_27" d="M355.988 109.34L352.274 108.113C352.065 108.038 351.886 107.896 351.767 107.709C351.648 107.522 351.594 107.3 351.615 107.079L351.899 104.807C351.909 104.709 351.943 104.614 351.996 104.531C352.049 104.447 352.12 104.377 352.205 104.326C352.289 104.274 352.385 104.242 352.483 104.233C352.582 104.224 352.681 104.238 352.773 104.273L356.477 105.5C356.689 105.575 356.87 105.719 356.991 105.908C357.113 106.097 357.167 106.321 357.147 106.545L356.852 108.817C356.843 108.915 356.812 109.01 356.76 109.093C356.708 109.177 356.637 109.247 356.553 109.298C356.469 109.349 356.374 109.379 356.275 109.386C356.177 109.394 356.079 109.378 355.988 109.34Z" fill="#263238"/>
<path id="Vector_28" d="M311.423 106.922L300.979 105.572C299.256 105.349 297.678 106.565 297.455 108.289L295.753 121.448C295.53 123.171 296.747 124.749 298.47 124.972L308.914 126.323C310.637 126.546 312.215 125.329 312.438 123.606L314.14 110.447C314.363 108.723 313.147 107.145 311.423 106.922Z" fill="black"/>
<path id="Vector_29" d="M321.764 110.163L310.385 108.691C307.473 108.314 304.807 110.369 304.43 113.281L303.769 118.396C303.392 121.308 305.447 123.974 308.359 124.351L319.738 125.823C322.65 126.199 325.316 124.144 325.693 121.232L326.354 116.117C326.731 113.205 324.676 110.539 321.764 110.163Z" fill="#263238"/>
<path id="Vector_30" d="M308.356 124.664C307.622 124.571 306.915 124.332 306.275 123.962C305.635 123.591 305.075 123.096 304.63 122.506C304.177 121.923 303.844 121.257 303.649 120.546C303.454 119.834 303.401 119.091 303.494 118.36L304.164 113.248C304.368 111.775 305.141 110.44 306.318 109.531C307.494 108.622 308.981 108.211 310.457 108.386C310.498 108.391 310.537 108.404 310.572 108.424C310.607 108.444 310.638 108.471 310.663 108.503C310.687 108.536 310.706 108.572 310.716 108.612C310.727 108.651 310.73 108.692 310.724 108.732C310.719 108.772 310.706 108.811 310.686 108.846C310.666 108.882 310.639 108.912 310.606 108.937C310.574 108.962 310.538 108.98 310.498 108.991C310.459 109.001 310.418 109.004 310.378 108.999C309.061 108.832 307.732 109.193 306.682 110.005C305.633 110.816 304.947 112.011 304.777 113.327L304.107 118.439C303.946 119.756 304.309 121.083 305.12 122.133C305.93 123.184 307.121 123.873 308.435 124.051C308.476 124.054 308.516 124.065 308.553 124.084C308.589 124.103 308.621 124.129 308.647 124.161C308.673 124.193 308.691 124.23 308.702 124.27C308.712 124.31 308.714 124.351 308.708 124.392C308.697 124.474 308.653 124.549 308.588 124.6C308.522 124.651 308.439 124.674 308.356 124.664Z" fill="#FAFAFA"/>
<path id="Vector_31" d="M327.555 110.531L318.711 109.387C317.255 109.198 315.922 110.226 315.734 111.682L314.293 122.824C314.104 124.28 315.132 125.613 316.588 125.801L325.432 126.945C326.888 127.134 328.221 126.106 328.409 124.65L329.85 113.508C330.039 112.052 329.011 110.719 327.555 110.531Z" fill="#263238"/>
<path id="Vector_32" d="M329.661 110.809L320.817 109.665C319.361 109.477 318.028 110.505 317.84 111.961L316.399 123.103C316.21 124.559 317.238 125.892 318.694 126.08L327.538 127.224C328.994 127.412 330.327 126.385 330.515 124.929L331.956 113.786C332.145 112.33 331.117 110.997 329.661 110.809Z" fill="black"/>
<path id="Vector_33" d="M338.385 113.547L328.764 112.302C326.3 111.984 324.044 113.723 323.725 116.187L323.166 120.513C322.847 122.977 324.586 125.233 327.05 125.551L336.671 126.796C339.135 127.115 341.391 125.375 341.71 122.912L342.27 118.585C342.588 116.121 340.849 113.866 338.385 113.547Z" fill="#263238"/>
<path id="Vector_34" d="M327.054 125.857C325.792 125.69 324.647 125.03 323.87 124.021C323.093 123.012 322.747 121.736 322.908 120.473L323.465 116.144C323.632 114.882 324.292 113.737 325.301 112.96C326.31 112.183 327.586 111.837 328.849 111.998C328.889 112.002 328.928 112.014 328.963 112.034C328.998 112.054 329.029 112.08 329.053 112.112C329.078 112.144 329.095 112.181 329.105 112.22C329.115 112.259 329.117 112.299 329.11 112.339C329.099 112.419 329.058 112.492 328.994 112.543C328.931 112.593 328.851 112.618 328.77 112.611C327.669 112.473 326.559 112.775 325.68 113.451C324.801 114.128 324.225 115.125 324.078 116.224L323.521 120.552C323.383 121.653 323.685 122.763 324.361 123.642C325.038 124.521 326.035 125.097 327.134 125.244C327.174 125.248 327.213 125.26 327.248 125.28C327.283 125.299 327.313 125.326 327.338 125.358C327.362 125.39 327.38 125.426 327.39 125.465C327.4 125.504 327.402 125.545 327.395 125.585C327.393 125.626 327.381 125.666 327.362 125.702C327.343 125.738 327.317 125.77 327.285 125.796C327.253 125.822 327.216 125.84 327.176 125.851C327.136 125.861 327.095 125.864 327.054 125.857Z" fill="#FAFAFA"/>
<path id="Vector_35" opacity="0.6" d="M362.077 114.66L356.601 113.951C355.979 113.871 355.409 114.31 355.329 114.932L354.906 118.199C354.826 118.822 355.265 119.391 355.887 119.472L361.362 120.18C361.985 120.26 362.554 119.821 362.635 119.199L363.057 115.932C363.138 115.31 362.699 114.74 362.077 114.66Z" fill="#407BFF"/>
<path id="Vector_36" d="M342.016 109.361L340.552 109.172C338.013 108.844 335.689 110.635 335.361 113.174L333.653 126.378C333.324 128.917 335.116 131.241 337.655 131.569L339.119 131.758C341.658 132.087 343.982 130.295 344.31 127.756L346.018 114.552C346.347 112.014 344.555 109.69 342.016 109.361Z" fill="black"/>
<path id="Vector_37" d="M357.09 151.917H356.772C356.483 151.918 356.194 151.941 355.909 151.985C342.481 160.96 357.704 167.707 355.023 165.424L355.488 165.538H355.659H355.716H355.522L354.943 165.47L353.705 165.322C352.864 165.22 352.035 165.095 351.206 164.97C349.536 164.731 347.866 164.459 346.207 164.175C342.867 163.607 339.55 162.891 336.233 162.084C329.279 160.491 322.57 157.973 316.285 154.598C314.506 153.587 312.825 152.412 311.264 151.088C310.855 150.724 310.446 150.349 310.048 149.952L309.446 149.316L309.299 149.157L309.003 148.816C308.637 148.381 308.324 147.905 308.072 147.396C307.631 146.531 307.358 145.59 307.265 144.624C307.242 144.246 307.242 143.866 307.265 143.488C307.265 143.159 307.265 142.875 307.345 142.568C307.473 141.698 307.705 140.848 308.038 140.035C308.499 138.947 309.062 137.904 309.719 136.922C310.298 136.059 310.855 135.286 311.446 134.559C312.557 133.162 313.74 131.823 314.99 130.549C319.705 125.72 324.845 121.324 330.349 117.417L335.006 122.392C331.042 127.436 326.952 132.526 323.362 137.535C322.476 138.785 321.636 140.046 320.897 141.25C320.55 141.809 320.231 142.385 319.943 142.977C319.731 143.375 319.57 143.799 319.466 144.238C319.466 144.329 319.466 144.351 319.545 144.067C319.552 143.965 319.552 143.863 319.545 143.761C319.562 143.594 319.562 143.427 319.545 143.261C319.492 142.699 319.334 142.152 319.08 141.648C318.917 141.318 318.715 141.009 318.478 140.727C318.296 140.523 318.375 140.614 318.398 140.625L318.455 140.682L318.716 140.921C318.909 141.08 319.102 141.239 319.318 141.398C320.314 142.116 321.371 142.747 322.476 143.283C325.052 144.544 327.732 145.582 330.485 146.385C333.348 147.271 336.335 148.021 339.357 148.657C342.379 149.293 345.469 149.906 348.559 150.463C350.104 150.736 351.66 150.986 353.216 151.213L355.557 151.565L356.693 151.747L357.317 151.838L357.738 151.906H357.942H358.192L358.692 152.031C356.022 149.759 371.256 156.507 357.817 165.481C357.52 165.528 357.22 165.555 356.92 165.56H356.329L357.09 151.917Z" fill="#B55B52"/>
<path id="Vector_38" d="M335.472 110.68H339.664L338.21 116.36L330.372 113.543L331.735 112.237C332.733 111.254 334.072 110.697 335.472 110.68Z" fill="#B55B52"/>
<path id="Vector_39" d="M328.372 121.245L330.326 113.52L338.164 116.338C338.164 116.338 338.108 125.641 332.064 125.164L328.372 121.245Z" fill="#B55B52"/>
<path id="Vector_40" d="M392.181 169.423C391.5 169.673 391.227 169.741 390.807 169.877L389.671 170.184C388.955 170.366 388.239 170.525 387.535 170.65C386.126 170.922 384.74 171.07 383.366 171.206C380.646 171.415 377.914 171.396 375.198 171.15C372.519 170.929 369.861 170.508 367.246 169.889C365.951 169.605 364.679 169.241 363.429 168.855L362.486 168.571L361.941 168.4C361.645 168.31 361.339 168.207 361.043 168.094C359.926 167.644 358.88 167.032 357.942 166.276C356.452 165.035 355.214 163.52 354.296 161.812C353.554 160.444 352.942 159.01 352.467 157.529C351.687 154.935 351.162 152.272 350.899 149.577C350.39 144.518 350.474 139.417 351.149 134.377H357.965C358.722 138.861 359.715 143.301 360.941 147.68C361.498 149.679 362.22 151.628 363.1 153.507C363.455 154.267 363.885 154.99 364.383 155.666C364.636 156.058 364.989 156.376 365.406 156.586C365.474 156.586 365.474 156.586 365.406 156.506C365.338 156.427 365.406 156.506 365.406 156.506H365.531H365.735L366.53 156.654L368.121 156.927L369.722 157.131C370.779 157.313 371.835 157.358 372.892 157.472C373.948 157.586 374.994 157.62 376.027 157.62C378.082 157.671 380.139 157.595 382.184 157.393C383.173 157.29 384.161 157.165 385.104 156.995L386.478 156.734L387.092 156.597C387.251 156.597 387.558 156.461 387.433 156.518L392.181 169.423Z" fill="#B55B52"/>
<path id="Vector_41" d="M384.525 125.187C382.457 134.4 381.946 141.261 383.809 148.532C383.809 148.532 381.73 155.268 369.382 155.268C355.75 155.268 363.145 148.532 363.145 148.532C370.631 146.76 370.654 141.25 369.552 136.093L384.525 125.187Z" fill="#B55B52"/>
<path id="Vector_42" d="M386.24 152.701C387.296 150.565 388.512 148.157 386.24 147.35C383.832 146.51 370.506 145.658 365.849 147.237C364.604 147.564 363.537 148.365 362.877 149.47C362.217 150.574 362.015 151.893 362.316 153.144L386.24 152.701Z" fill="#263238"/>
<path id="Vector_43" d="M449.674 398.963C450.421 398.507 451.118 397.974 451.753 397.372C451.786 397.339 451.809 397.296 451.819 397.25C451.829 397.204 451.826 397.156 451.81 397.111C451.796 397.068 451.768 397.031 451.731 397.004C451.695 396.978 451.651 396.964 451.605 396.963C451.174 396.963 447.414 396.827 446.743 397.861C446.673 397.978 446.636 398.111 446.636 398.247C446.636 398.383 446.673 398.517 446.743 398.633C446.832 398.848 446.973 399.038 447.154 399.185C447.334 399.332 447.548 399.431 447.777 399.474C448.448 399.517 449.115 399.337 449.674 398.963ZM450.992 397.418C449.697 398.554 448.538 399.133 447.845 399.008C447.69 398.975 447.545 398.906 447.422 398.805C447.3 398.704 447.203 398.575 447.141 398.429C447.061 398.259 447.141 398.168 447.141 398.111C447.482 397.6 449.492 397.406 450.992 397.418Z" fill="#407BFF"/>
<path id="Vector_44" d="M451.708 397.396C451.746 397.375 451.778 397.343 451.798 397.305C451.821 397.269 451.832 397.228 451.832 397.185C451.832 397.143 451.821 397.102 451.798 397.066C451.73 396.964 450.106 394.59 448.629 394.34C448.451 394.309 448.269 394.315 448.094 394.356C447.918 394.397 447.753 394.472 447.607 394.578C447.456 394.669 447.34 394.809 447.279 394.974C447.217 395.138 447.212 395.319 447.266 395.487C447.629 396.555 450.435 397.452 451.605 397.43C451.642 397.428 451.677 397.416 451.708 397.396ZM447.97 394.896C448.144 394.802 448.344 394.77 448.538 394.805C449.481 394.965 450.583 396.26 451.106 396.93C449.833 396.759 447.913 395.964 447.698 395.328C447.698 395.271 447.641 395.135 447.879 394.953L447.97 394.896Z" fill="#407BFF"/>
<path id="Vector_45" d="M462.17 393.158L455.559 398.531L439.825 382.366L446.425 376.993L462.17 393.158Z" fill="#B55B52"/>
<path id="Vector_46" d="M452.355 396.464L460.75 390.647C460.896 390.543 461.075 390.494 461.253 390.509C461.432 390.523 461.6 390.601 461.727 390.727L466.567 397.009C466.71 397.153 466.82 397.326 466.889 397.517C466.958 397.707 466.985 397.911 466.968 398.113C466.951 398.315 466.889 398.511 466.789 398.687C466.688 398.864 466.55 399.016 466.385 399.133C463.768 400.938 461.053 402.596 458.251 404.098C455.854 405.461 454.025 411.061 445.812 411.061C442.086 411.061 440.836 408.096 442.404 407.653C450.481 405.188 450.708 400.837 451.492 397.804C451.608 397.268 451.915 396.791 452.355 396.464Z" fill="#263238"/>
<path id="Vector_47" d="M346.639 229.62H395.328C395.885 222.928 393.295 192.961 398.918 161.46C399.175 159.981 399.123 158.466 398.763 157.009C398.404 155.552 397.746 154.186 396.83 152.997C395.915 151.808 394.762 150.823 393.446 150.103C392.129 149.383 390.677 148.945 389.182 148.816C387.796 148.68 386.376 148.566 384.956 148.498C378.074 148.106 371.175 148.106 364.292 148.498C361.237 148.782 358.238 149.27 355.807 149.747C351.853 150.531 348.161 153.326 347.571 157.313C343.901 181.907 346.639 229.597 346.639 229.597" fill="#407BFF"/>
<path id="Vector_48" d="M356.488 224.837H342.118C341.374 224.852 340.636 224.705 339.955 224.408C339.273 224.111 338.664 223.67 338.169 223.116C337.673 222.561 337.304 221.906 337.086 221.195C336.867 220.484 336.805 219.735 336.903 218.998L338.528 203.469C338.731 201.884 339.494 200.424 340.68 199.353C341.865 198.282 343.395 197.671 344.992 197.63H359.362C360.106 197.615 360.843 197.761 361.525 198.058C362.207 198.355 362.816 198.796 363.311 199.351C363.806 199.905 364.176 200.561 364.394 201.271C364.613 201.982 364.675 202.732 364.576 203.469L362.895 218.998C362.698 220.575 361.945 222.03 360.77 223.1C359.595 224.171 358.077 224.787 356.488 224.837Z" fill="#263238"/>
<path id="Vector_49" d="M359.408 197.664L356.488 224.871C358.085 224.832 359.614 224.221 360.798 223.149C361.982 222.078 362.743 220.617 362.941 219.032L364.656 203.469C364.75 202.731 364.683 201.983 364.46 201.274C364.237 200.565 363.864 199.912 363.365 199.361C362.867 198.809 362.255 198.372 361.572 198.079C360.889 197.787 360.151 197.645 359.408 197.664Z" fill="black"/>
<path id="Vector_50" d="M363.384 203.662C363.265 203.663 363.149 203.628 363.052 203.561C362.955 203.493 362.881 203.397 362.841 203.286C362.801 203.175 362.797 203.054 362.829 202.94C362.861 202.826 362.928 202.725 363.02 202.651C363.338 202.389 394.828 176.58 388.637 148.963C388.62 148.89 388.618 148.815 388.631 148.741C388.643 148.667 388.671 148.596 388.711 148.533C388.751 148.469 388.803 148.414 388.865 148.371C388.926 148.328 388.995 148.298 389.069 148.282C389.141 148.265 389.216 148.263 389.289 148.276C389.362 148.289 389.432 148.316 389.495 148.356C389.557 148.396 389.611 148.449 389.653 148.51C389.695 148.571 389.724 148.641 389.739 148.713C396.066 177.023 364.065 203.241 363.736 203.537C363.635 203.616 363.512 203.66 363.384 203.662Z" fill="#263238"/>
<path id="Vector_51" d="M359.623 198.686H342.777C342.212 198.697 341.656 198.82 341.141 199.05C340.438 199.585 339.849 200.256 339.41 201.023C338.971 201.79 338.69 202.637 338.585 203.514L337.801 210.728C338.286 211.069 338.867 211.247 339.459 211.239H356.306C357.407 211.154 358.454 210.729 359.303 210.023C360.151 209.316 360.76 208.364 361.043 207.297L362.282 202.662C362.85 200.47 361.657 198.686 359.623 198.686Z" fill="black"/>
<path id="Vector_52" d="M356.42 210.228H339.573C337.54 210.228 336.347 208.444 336.915 206.263L338.142 201.628C338.429 200.56 339.039 199.607 339.889 198.899C340.739 198.191 341.788 197.764 342.89 197.675H359.737C361.771 197.675 362.963 199.47 362.384 201.64L361.157 206.275C360.871 207.341 360.262 208.293 359.414 209.001C358.566 209.708 357.521 210.137 356.42 210.228Z" fill="#263238"/>
<path id="Vector_53" opacity="0.2" d="M346.65 165.401C346.23 170.229 345.969 175.5 345.821 180.885C351.24 174.864 354.932 167.367 346.65 165.401Z" fill="black"/>
<path id="Vector_54" d="M358.033 167.855C351.581 173.626 338.437 166.004 338.437 166.004L334.518 147.169C334.518 147.169 349.07 147.169 360.453 148.577C373.165 150.077 365.292 161.312 358.033 167.855Z" fill="#407BFF"/>
<g id="Group" opacity="0.2">
<path id="Vector_55" opacity="0.2" d="M446.425 376.993L439.825 382.377L447.936 390.704L454.548 385.32L446.425 376.993Z" fill="black"/>
</g>
<path id="Vector_56" d="M355.488 229.619C355.488 229.619 371.517 281.08 376.186 307.106C381.287 335.608 441.87 389.341 441.87 389.341L453.162 378.822C453.162 378.822 415.844 329.042 403.348 309.696C400.69 279.024 395.26 229.619 395.26 229.619H355.488Z" fill="#263238"/>
<path id="Vector_57" d="M437.224 388.307L442.506 392.204L456.729 380.003L452.923 375.754L437.224 388.307Z" fill="#407BFF"/>
<path id="Vector_58" opacity="0.2" d="M363.384 256.134C364.667 260.609 366.008 265.381 367.326 270.231C374.505 259.667 375.493 246.818 375.493 246.818L363.384 256.134Z" fill="black"/>
<path id="Vector_59" d="M361.68 116.145C361.577 116.872 361.112 117.417 360.634 117.372C360.157 117.326 359.851 116.69 359.953 115.974C360.055 115.259 360.532 114.691 361.009 114.747C361.487 114.804 361.782 115.418 361.68 116.145Z" fill="#263238"/>
<path id="Vector_60" d="M361.18 117.428C359.992 119.567 358.525 121.538 356.818 123.29C357.954 124.619 360.226 124.29 360.226 124.29L361.18 117.428Z" fill="#A02724"/>
<path id="Vector_61" d="M361.396 111.396C361.33 111.375 361.271 111.339 361.223 111.289C361.175 111.239 361.141 111.178 361.123 111.112C361.108 111.057 361.103 110.999 361.11 110.942C361.118 110.885 361.136 110.83 361.164 110.781C361.193 110.731 361.231 110.687 361.277 110.653C361.322 110.618 361.374 110.593 361.43 110.578C362.095 110.438 362.785 110.46 363.44 110.644C364.094 110.828 364.695 111.168 365.19 111.635C365.23 111.675 365.263 111.722 365.285 111.775C365.306 111.828 365.318 111.884 365.318 111.941C365.318 111.998 365.306 112.055 365.285 112.107C365.263 112.16 365.23 112.208 365.19 112.248C365.151 112.288 365.104 112.32 365.052 112.342C365.001 112.364 364.945 112.375 364.889 112.375C364.833 112.375 364.777 112.364 364.725 112.342C364.674 112.32 364.627 112.288 364.588 112.248C364.196 111.881 363.724 111.611 363.209 111.461C362.693 111.311 362.15 111.285 361.623 111.385C361.551 111.416 361.47 111.42 361.396 111.396Z" fill="#263238"/>
<path id="Vector_62" d="M386.24 117.099C384.422 125.96 383.82 131.231 378.64 135.343C376.985 136.702 374.99 137.582 372.87 137.888C370.75 138.193 368.588 137.913 366.616 137.078C364.644 136.242 362.938 134.883 361.684 133.148C360.429 131.412 359.674 129.366 359.499 127.232C358.715 119.019 361.771 105.909 371.074 103.251C373.058 102.623 375.172 102.527 377.205 102.974C379.237 103.422 381.116 104.396 382.653 105.799C384.189 107.202 385.33 108.985 385.96 110.969C386.589 112.952 386.686 115.066 386.24 117.099Z" fill="#B55B52"/>
<path id="Vector_63" d="M366.144 121.37L362.259 121.711C362.259 121.711 361.68 116.144 364.735 112.986C362.691 112.612 360.816 109.385 361.157 104.932C361.509 100.218 368.689 92.8224 373.903 97.5709C379.515 102.683 390.545 103.876 388.353 106.988C391.579 106.386 399.213 117.042 391.579 122.268C383.945 127.493 386.535 132.571 382.9 134.639C379.265 136.706 367.246 134.57 366.144 121.37Z" fill="#263238"/>
<path id="Vector_64" d="M387.989 107.17C387.989 107.17 389.557 105.727 387.785 102.626C390.364 103.978 389.841 106.659 387.989 107.17Z" fill="#263238"/>
<path id="Vector_65" d="M370.45 121.12C369.939 123.325 368.747 125.312 367.042 126.8C364.77 128.754 362.918 127.164 362.975 124.528C362.975 122.108 364.27 118.178 366.837 117.258C369.404 116.338 371.018 118.462 370.45 121.12Z" fill="#B55B52"/>
<path id="Vector_66" d="M281.171 401.735C282.049 401.711 282.921 401.593 283.773 401.383C283.818 401.371 283.858 401.347 283.889 401.312C283.92 401.278 283.941 401.235 283.948 401.189C283.955 401.144 283.949 401.097 283.93 401.054C283.911 401.012 283.88 400.976 283.841 400.951C283.477 400.724 280.274 398.759 279.172 399.327C279.051 399.388 278.949 399.483 278.879 399.599C278.809 399.716 278.772 399.85 278.774 399.986C278.745 400.218 278.775 400.454 278.86 400.672C278.946 400.89 279.084 401.084 279.263 401.235C279.824 401.613 280.497 401.789 281.171 401.735ZM283.091 401.053C281.399 401.383 280.103 401.326 279.558 400.872C279.439 400.767 279.348 400.634 279.293 400.485C279.237 400.337 279.219 400.177 279.24 400.02C279.237 399.964 279.25 399.908 279.276 399.858C279.302 399.808 279.34 399.766 279.388 399.736C279.956 399.452 281.785 400.292 283.091 401.008V401.053Z" fill="#407BFF"/>
<path id="Vector_67" d="M283.716 401.382C283.757 401.394 283.8 401.394 283.841 401.382C283.876 401.36 283.905 401.327 283.923 401.289C283.941 401.251 283.948 401.209 283.943 401.167C283.943 401.042 283.705 398.179 282.546 397.236C282.409 397.119 282.25 397.031 282.078 396.978C281.906 396.926 281.725 396.909 281.546 396.929C281.368 396.931 281.197 396.995 281.06 397.108C280.924 397.222 280.83 397.38 280.796 397.554C280.592 398.69 282.58 400.837 283.602 401.394C283.64 401.402 283.68 401.398 283.716 401.382ZM281.728 397.361C281.928 397.364 282.121 397.436 282.273 397.566C282.953 398.467 283.348 399.551 283.409 400.678C282.387 399.906 281.137 398.258 281.251 397.6C281.251 397.543 281.251 397.406 281.592 397.372H281.728V397.361Z" fill="#407BFF"/>
<path id="Vector_68" d="M294.406 401.36H285.318L285.227 380.31H294.315L294.406 401.36Z" fill="#B55B52"/>
<path id="Vector_69" d="M285.42 399.974H295.36C295.539 399.972 295.713 400.033 295.85 400.148C295.988 400.263 296.08 400.423 296.11 400.599L297.598 408.676C297.633 408.875 297.624 409.08 297.571 409.275C297.517 409.471 297.422 409.652 297.29 409.806C297.159 409.96 296.995 410.084 296.811 410.167C296.626 410.25 296.426 410.292 296.223 410.289C292.645 410.232 287.487 410.016 282.978 410.016C277.718 410.016 277.468 410.312 271.288 410.312C267.562 410.312 266.665 406.54 268.244 406.199C275.412 404.643 276.934 404.473 283.216 400.679C283.875 400.253 284.636 400.01 285.42 399.974Z" fill="#263238"/>
<path id="Vector_70" opacity="0.2" d="M285.227 380.31L285.272 391.159H294.36L294.315 380.31H285.227Z" fill="black"/>
<path id="Vector_71" d="M346.639 229.619C346.639 229.619 284.057 278.081 281.353 305.663C278.547 334.359 281.967 388.728 281.967 388.728H297.359C297.359 388.728 306.141 332.336 307.924 304.016C341.504 271.072 378.106 261.734 388.353 229.619H346.639Z" fill="#263238"/>
<path id="Vector_72" d="M279.24 382.593C279.172 382.593 279.865 388.989 279.865 388.989H298.586L299.313 383.309L279.24 382.593Z" fill="#407BFF"/>
</g>
</g>
</svg>
