<svg width="236" height="176" viewBox="0 0 236 176" fill="none" xmlns="http://www.w3.org/2000/svg">
<path d="M28.2 139.152C35.256 139.152 40.608 136.944 44.256 132.528C47.952 128.112 49.8 121.68 49.8 113.232C49.8 108.576 48.696 103.704 46.488 98.616C44.28 93.528 40.536 87.264 35.256 79.824C30.6 73.248 27.384 68.184 25.608 64.632C23.88 61.08 23.016 57.888 23.016 55.056C23.016 48.576 24.792 45.312 28.344 45.264C32.472 45.168 34.536 50.256 34.536 60.528L49.8 59.088C49.8 49.968 47.904 42.984 44.112 38.136C40.368 33.24 35.016 30.864 28.056 31.008C22.056 31.104 17.16 33.456 13.368 38.064C9.624 42.624 7.752 48.528 7.752 55.776C7.752 63.792 11.928 73.992 20.28 86.376C23.544 91.176 26.112 95.064 27.984 98.04C29.904 101.016 31.32 103.44 32.232 105.312C33.192 107.136 33.816 108.744 34.104 110.136C34.392 111.528 34.536 113.04 34.536 114.672C34.536 121.488 32.424 124.896 28.2 124.896C25.656 124.896 23.784 123.48 22.584 120.648C21.432 117.768 20.856 113.184 20.856 106.896L5.592 108.336C4.872 128.88 12.408 139.152 28.2 139.152ZM58.1194 138H72.5194V67.008H73.3834L73.9594 71.472L83.8954 138H90.5194L100.455 71.472L101.031 67.008H101.895V138H116.295V32.16H97.2874L88.0714 80.544L87.3514 86.16H87.0634L86.3434 80.544L77.1274 32.16H58.1194V138ZM127.869 138H143.421V32.16H127.869V138ZM155.01 138H191.154V123.6H170.562V32.16H155.01V138ZM197.479 138H233.047V122.016H213.031V92.928H227.431V75.936H213.031V48.144H233.047V32.16H197.479V138Z" fill="white"/>
<path d="M44.256 132.528L43.4891 131.886L43.485 131.891L44.256 132.528ZM46.488 98.616L47.4053 98.2179L47.4053 98.2179L46.488 98.616ZM35.256 79.824L34.4399 80.4019L34.4405 80.4027L35.256 79.824ZM25.608 64.632L24.7087 65.0695L24.7136 65.0792L25.608 64.632ZM28.344 45.264L28.3575 46.2639L28.3673 46.2637L28.344 45.264ZM34.536 60.528H33.536V61.6268L34.6299 61.5236L34.536 60.528ZM49.8 59.088L49.8939 60.0836L50.8 59.9981V59.088H49.8ZM44.112 38.136L43.3176 38.7435L43.3243 38.7521L44.112 38.136ZM28.056 31.008L28.072 32.0079L28.0767 32.0078L28.056 31.008ZM13.368 38.064L12.5958 37.4286L12.5951 37.4294L13.368 38.064ZM20.28 86.376L19.4509 86.9351L19.4531 86.9383L20.28 86.376ZM27.984 98.04L27.1375 98.5725L27.1437 98.5821L27.984 98.04ZM32.232 105.312L31.333 105.75L31.3398 105.764L31.3471 105.778L32.232 105.312ZM34.104 110.136L33.1247 110.339L33.1247 110.339L34.104 110.136ZM22.584 120.648L21.6555 121.019L21.6593 121.029L21.6632 121.038L22.584 120.648ZM20.856 106.896H21.856V105.797L20.7621 105.9L20.856 106.896ZM5.592 108.336L5.49808 107.34L4.62339 107.423L4.59261 108.301L5.592 108.336ZM28.2 140.152C35.4785 140.152 41.1455 137.863 45.027 133.165L43.485 131.891C40.0705 136.025 35.0335 138.152 28.2 138.152V140.152ZM45.0229 133.17C48.926 128.506 50.8 121.808 50.8 113.232H48.8C48.8 121.552 46.978 127.718 43.4891 131.886L45.0229 133.17ZM50.8 113.232C50.8 108.415 49.6576 103.408 47.4053 98.2179L45.5707 99.0141C47.7344 104 48.8 108.737 48.8 113.232H50.8ZM47.4053 98.2179C45.1578 93.0389 41.3695 86.7106 36.0715 79.2453L34.4405 80.4027C39.7025 87.8174 43.4022 94.0171 45.5707 99.0141L47.4053 98.2179ZM36.0721 79.2461C31.4221 72.6785 28.2428 67.6656 26.5024 64.1848L24.7136 65.0792C26.5252 68.7024 29.7779 73.8175 34.4399 80.4018L36.0721 79.2461ZM26.5072 64.1945C24.821 60.7283 24.016 57.6888 24.016 55.056H22.016C22.016 58.0872 22.939 61.4317 24.7088 65.0695L26.5072 64.1945ZM24.016 55.056C24.016 51.8755 24.4573 49.6394 25.2264 48.2259C25.9515 46.8934 26.9631 46.2827 28.3575 46.2639L28.3305 44.2641C26.1729 44.2932 24.5205 45.3386 23.4696 47.27C22.4627 49.1206 22.016 51.7565 22.016 55.056H24.016ZM28.3673 46.2637C29.1728 46.245 29.8429 46.4729 30.4254 46.9425C31.0263 47.427 31.5861 48.2123 32.0613 49.3839C33.0193 51.7454 33.536 55.4284 33.536 60.528H35.536C35.536 55.3556 35.0207 51.3586 33.9147 48.6321C33.3579 47.2597 32.6277 46.149 31.6806 45.3855C30.7151 44.6071 29.5792 44.235 28.3208 44.2643L28.3673 46.2637ZM34.6299 61.5236L49.8939 60.0836L49.7061 58.0924L34.4421 59.5324L34.6299 61.5236ZM50.8 59.088C50.8 49.848 48.8816 42.6108 44.8997 37.5199L43.3243 38.7521C46.9264 43.3572 48.8 50.088 48.8 59.088H50.8ZM44.9064 37.5285C40.9416 32.3439 35.2665 29.8586 28.0353 30.0082L28.0767 32.0078C34.7655 31.8694 39.7944 34.1361 43.3176 38.7434L44.9064 37.5285ZM28.04 30.0081C21.7486 30.1088 16.5754 32.5926 12.5958 37.4286L14.1402 38.6994C17.7446 34.3194 22.3634 32.0992 28.072 32.0079L28.04 30.0081ZM12.5951 37.4294C8.67301 42.2064 6.752 48.3512 6.752 55.776H8.752C8.752 48.7048 10.575 43.0416 14.1409 38.6986L12.5951 37.4294ZM6.752 55.776C6.752 64.1 11.0698 74.508 19.4509 86.9351L21.1091 85.8169C12.7862 73.476 8.752 63.484 8.752 55.776H6.752ZM19.4531 86.9383C22.7141 91.7339 25.2746 95.6109 27.1375 98.5725L28.8305 97.5075C26.9494 94.5171 24.3739 90.6181 21.1069 85.8137L19.4531 86.9383ZM27.1437 98.5821C29.0548 101.544 30.4464 103.93 31.333 105.75L33.131 104.874C32.1936 102.95 30.7532 100.488 28.8243 97.4979L27.1437 98.5821ZM31.3471 105.778C32.2812 107.553 32.8621 109.069 33.1247 110.339L35.0833 109.933C34.7699 108.419 34.1028 106.719 33.1169 104.846L31.3471 105.778ZM33.1247 110.339C33.3971 111.655 33.536 113.098 33.536 114.672H35.536C35.536 112.982 35.3869 111.401 35.0833 109.933L33.1247 110.339ZM33.536 114.672C33.536 118.009 33.0131 120.343 32.102 121.813C31.2398 123.204 29.9883 123.896 28.2 123.896V125.896C30.6357 125.896 32.5522 124.884 33.802 122.867C35.0029 120.929 35.536 118.151 35.536 114.672H33.536ZM28.2 123.896C27.1264 123.896 26.2387 123.602 25.4913 123.036C24.7318 122.462 24.057 121.561 23.5048 120.258L21.6632 121.038C22.311 122.567 23.1722 123.79 24.2847 124.632C25.4093 125.482 26.7296 125.896 28.2 125.896V123.896ZM23.5125 120.277C22.435 117.583 21.856 113.16 21.856 106.896H19.856C19.856 113.208 20.429 117.953 21.6555 121.019L23.5125 120.277ZM20.7621 105.9L5.49808 107.34L5.68592 109.332L20.9499 107.892L20.7621 105.9ZM4.59261 108.301C4.22923 118.67 5.93693 126.641 9.89772 132.04C13.8994 137.494 20.0707 140.152 28.2 140.152V138.152C20.5373 138.152 15.0446 135.674 11.5103 130.856C7.93507 125.983 6.23477 118.546 6.59139 108.371L4.59261 108.301ZM58.1194 138H57.1194V139H58.1194V138ZM72.5194 138V139H73.5194V138H72.5194ZM72.5194 67.008V66.008H71.5194V67.008H72.5194ZM73.3834 67.008L74.3752 66.88L74.2626 66.008H73.3834V67.008ZM73.9594 71.472L72.9676 71.6L72.9689 71.6099L72.9703 71.6197L73.9594 71.472ZM83.8954 138L82.9063 138.148L83.0336 139H83.8954V138ZM90.5194 138V139H91.3811L91.5084 138.148L90.5194 138ZM100.455 71.472L101.444 71.6197L101.446 71.6099L101.447 71.6L100.455 71.472ZM101.031 67.008V66.008H100.152L100.04 66.88L101.031 67.008ZM101.895 67.008H102.895V66.008H101.895V67.008ZM101.895 138H100.895V139H101.895V138ZM116.295 138V139H117.295V138H116.295ZM116.295 32.16H117.295V31.16H116.295V32.16ZM97.2874 32.16V31.16H96.4599L96.305 31.9729L97.2874 32.16ZM88.0714 80.544L87.089 80.3569L87.0834 80.3867L87.0795 80.4168L88.0714 80.544ZM87.3514 86.16V87.16H88.2314L88.3433 86.2872L87.3514 86.16ZM87.0634 86.16L86.0715 86.2872L86.1834 87.16H87.0634V86.16ZM86.3434 80.544L87.3353 80.4168L87.3314 80.3867L87.3257 80.3569L86.3434 80.544ZM77.1274 32.16L78.1097 31.9729L77.9549 31.16H77.1274V32.16ZM58.1194 32.16V31.16H57.1194V32.16H58.1194ZM58.1194 139H72.5194V137H58.1194V139ZM73.5194 138V67.008H71.5194V138H73.5194ZM72.5194 68.008H73.3834V66.008H72.5194V68.008ZM72.3916 67.136L72.9676 71.6L74.9512 71.344L74.3752 66.88L72.3916 67.136ZM72.9703 71.6197L82.9063 138.148L84.8844 137.852L74.9484 71.3243L72.9703 71.6197ZM83.8954 139H90.5194V137H83.8954V139ZM91.5084 138.148L101.444 71.6197L99.4663 71.3243L89.5303 137.852L91.5084 138.148ZM101.447 71.6L102.023 67.136L100.04 66.88L99.4636 71.344L101.447 71.6ZM101.031 68.008H101.895V66.008H101.031V68.008ZM100.895 67.008V138H102.895V67.008H100.895ZM101.895 139H116.295V137H101.895V139ZM117.295 138V32.16H115.295V138H117.295ZM116.295 31.16H97.2874V33.16H116.295V31.16ZM96.305 31.9729L87.089 80.3569L89.0537 80.7311L98.2697 32.3471L96.305 31.9729ZM87.0795 80.4168L86.3595 86.0328L88.3433 86.2872L89.0633 80.6712L87.0795 80.4168ZM87.3514 85.16H87.0634V87.16H87.3514V85.16ZM88.0553 86.0328L87.3353 80.4168L85.3515 80.6712L86.0715 86.2872L88.0553 86.0328ZM87.3257 80.3569L78.1097 31.9729L76.145 32.3471L85.361 80.7311L87.3257 80.3569ZM77.1274 31.16H58.1194V33.16H77.1274V31.16ZM57.1194 32.16V138H59.1194V32.16H57.1194ZM127.869 138H126.869V139H127.869V138ZM143.421 138V139H144.421V138H143.421ZM143.421 32.16H144.421V31.16H143.421V32.16ZM127.869 32.16V31.16H126.869V32.16H127.869ZM127.869 139H143.421V137H127.869V139ZM144.421 138V32.16H142.421V138H144.421ZM143.421 31.16H127.869V33.16H143.421V31.16ZM126.869 32.16V138H128.869V32.16H126.869ZM155.01 138H154.01V139H155.01V138ZM191.154 138V139H192.154V138H191.154ZM191.154 123.6H192.154V122.6H191.154V123.6ZM170.562 123.6H169.562V124.6H170.562V123.6ZM170.562 32.16H171.562V31.16H170.562V32.16ZM155.01 32.16V31.16H154.01V32.16H155.01ZM155.01 139H191.154V137H155.01V139ZM192.154 138V123.6H190.154V138H192.154ZM191.154 122.6H170.562V124.6H191.154V122.6ZM171.562 123.6V32.16H169.562V123.6H171.562ZM170.562 31.16H155.01V33.16H170.562V31.16ZM154.01 32.16V138H156.01V32.16H154.01ZM197.479 138H196.479V139H197.479V138ZM233.047 138V139H234.047V138H233.047ZM233.047 122.016H234.047V121.016H233.047V122.016ZM213.031 122.016H212.031V123.016H213.031V122.016ZM213.031 92.928V91.928H212.031V92.928H213.031ZM227.431 92.928V93.928H228.431V92.928H227.431ZM227.431 75.936H228.431V74.936H227.431V75.936ZM213.031 75.936H212.031V76.936H213.031V75.936ZM213.031 48.144V47.144H212.031V48.144H213.031ZM233.047 48.144V49.144H234.047V48.144H233.047ZM233.047 32.16H234.047V31.16H233.047V32.16ZM197.479 32.16V31.16H196.479V32.16H197.479ZM197.479 139H233.047V137H197.479V139ZM234.047 138V122.016H232.047V138H234.047ZM233.047 121.016H213.031V123.016H233.047V121.016ZM214.031 122.016V92.928H212.031V122.016H214.031ZM213.031 93.928H227.431V91.928H213.031V93.928ZM228.431 92.928V75.936H226.431V92.928H228.431ZM227.431 74.936H213.031V76.936H227.431V74.936ZM214.031 75.936V48.144H212.031V75.936H214.031ZM213.031 49.144H233.047V47.144H213.031V49.144ZM234.047 48.144V32.16H232.047V48.144H234.047ZM233.047 31.16H197.479V33.16H233.047V31.16ZM196.479 32.16V138H198.479V32.16H196.479Z" fill="black"/>
<path d="M25.2 138.152C32.256 138.152 37.608 135.944 41.256 131.528C44.952 127.112 46.8 120.68 46.8 112.232C46.8 107.576 45.696 102.704 43.488 97.616C41.28 92.528 37.536 86.264 32.256 78.824C27.6 72.248 24.384 67.184 22.608 63.632C20.88 60.08 20.016 56.888 20.016 54.056C20.016 47.576 21.792 44.312 25.344 44.264C29.472 44.168 31.536 49.256 31.536 59.528L46.8 58.088C46.8 48.968 44.904 41.984 41.112 37.136C37.368 32.24 32.016 29.864 25.056 30.008C19.056 30.104 14.16 32.456 10.368 37.064C6.624 41.624 4.752 47.528 4.752 54.776C4.752 62.792 8.928 72.992 17.28 85.376C20.544 90.176 23.112 94.064 24.984 97.04C26.904 100.016 28.32 102.44 29.232 104.312C30.192 106.136 30.816 107.744 31.104 109.136C31.392 110.528 31.536 112.04 31.536 113.672C31.536 120.488 29.424 123.896 25.2 123.896C22.656 123.896 20.784 122.48 19.584 119.648C18.432 116.768 17.856 112.184 17.856 105.896L2.592 107.336C1.872 127.88 9.408 138.152 25.2 138.152ZM55.1194 137H69.5194V66.008H70.3834L70.9594 70.472L80.8954 137H87.5194L97.4554 70.472L98.0314 66.008H98.8954V137H113.295V31.16H94.2874L85.0714 79.544L84.3514 85.16H84.0634L83.3434 79.544L74.1274 31.16H55.1194V137ZM124.869 137H140.421V31.16H124.869V137ZM152.01 137H188.154V122.6H167.562V31.16H152.01V137ZM194.479 137H230.047V121.016H210.031V91.928H224.431V74.936H210.031V47.144H230.047V31.16H194.479V137Z" fill="#C5AD34"/>
</svg>
