<svg width="140" height="140" viewBox="0 0 140 140" fill="none" xmlns="http://www.w3.org/2000/svg">
<path d="M130.135 102.061C113.401 99.3113 105.863 82.1633 105.553 81.4373C105.53 81.3873 105.505 81.3393 105.481 81.2923C104.627 79.5623 104.432 78.1313 104.893 77.0403C105.807 74.8943 109.314 73.7853 111.628 73.0503C112.304 72.8403 112.936 72.6383 113.465 72.4343C115.746 71.5333 117.38 70.5573 118.457 69.4483C119.746 68.1293 119.993 66.8633 119.977 66.0353C119.937 64.0323 118.403 62.2503 115.957 61.3783C115.135 61.0353 114.187 60.8583 113.234 60.8583C112.581 60.8583 111.615 60.9473 110.701 61.3743C108.741 62.2873 106.984 62.7853 105.48 62.8583C104.686 62.8163 104.122 62.6413 103.755 62.4783C103.798 61.6953 103.85 60.8943 103.906 60.0573L103.925 59.7003C104.462 51.2283 105.13 40.6843 102.327 34.4223C100.411 30.1373 97.84 26.4513 94.675 23.4603C92.019 20.9533 88.938 18.9253 85.511 17.4223C79.547 14.8143 73.985 14.4243 71.202 14.4243H71.198C71.087 14.4243 70.987 14.4243 70.891 14.4273C70.12 14.4333 68.852 14.4463 68.741 14.4463C65.963 14.4463 60.395 14.8383 54.425 17.4683C51.014 18.9683 47.941 21.0003 45.297 23.5053C42.148 26.4873 39.578 30.1643 37.671 34.4343C34.872 40.6923 35.536 51.2283 36.069 59.6963V59.7073C36.129 60.6113 36.187 61.5603 36.243 62.4823C35.83 62.6693 35.17 62.8673 34.188 62.8673C32.608 62.8673 30.733 62.3653 28.61 61.3733C27.986 61.0823 27.269 60.9383 26.487 60.9383C25.225 60.9383 23.895 61.3083 22.738 61.9843C21.282 62.8363 20.344 64.0373 20.09 65.3713C19.923 66.2523 19.931 67.9993 21.871 69.7643C22.94 70.7343 24.511 71.6313 26.535 72.4323C27.067 72.6363 27.695 72.8393 28.368 73.0483C30.681 73.7833 34.192 74.8933 35.106 77.0423C35.571 78.1293 35.373 79.5603 34.518 81.2923C34.494 81.3423 34.469 81.3883 34.45 81.4363C34.235 81.9333 32.243 86.4403 28.148 91.1933C25.827 93.8913 23.266 96.1523 20.543 97.9013C17.224 100.045 13.63 101.444 9.86101 102.062C8.38201 102.303 7.32801 103.619 7.41101 105.112C7.43201 105.539 7.53801 105.968 7.71001 106.384L7.71401 106.394C8.31501 107.786 9.70201 108.97 11.952 110.017C14.711 111.291 18.825 112.365 24.196 113.208C24.467 113.719 24.75 115.013 24.944 115.897C25.147 116.837 25.362 117.803 25.665 118.831C25.99 119.944 26.842 121.274 29.019 121.274C29.846 121.274 30.8 121.091 31.898 120.876C33.507 120.56 35.714 120.128 38.465 120.128C39.986 120.128 41.574 120.263 43.164 120.527C46.233 121.034 48.873 122.898 51.935 125.056C56.415 128.215 61.481 131.785 69.229 131.785C69.44 131.785 69.652 131.781 69.861 131.763C70.116 131.775 70.434 131.785 70.768 131.785C78.516 131.785 83.585 128.211 88.058 125.056L88.066 125.05C91.124 122.896 93.768 121.035 96.833 120.528C98.423 120.264 100.006 120.129 101.533 120.129C104.16 120.129 106.24 120.463 108.1 120.825C109.312 121.063 110.254 121.178 110.978 121.178H111.05H111.121C112.715 121.178 113.888 120.305 114.337 118.777C114.631 117.771 114.846 116.825 115.053 115.871C115.236 115.044 115.527 113.716 115.797 113.193C121.172 112.352 125.286 111.283 128.045 110.005C130.292 108.965 131.675 107.781 132.274 106.394C132.459 105.978 132.56 105.546 132.586 105.107C132.671 103.616 131.617 102.304 130.135 102.061Z" fill="#FFEB5A"/>
<path d="M130.135 102.061C113.401 99.3113 105.863 82.1633 105.553 81.4373C105.53 81.3873 105.505 81.3393 105.481 81.2923C104.627 79.5623 104.432 78.1313 104.893 77.0403C105.807 74.8943 109.314 73.7853 111.628 73.0503C112.304 72.8403 112.936 72.6383 113.465 72.4343C115.746 71.5333 117.38 70.5573 118.457 69.4483C119.746 68.1293 119.993 66.8633 119.977 66.0353C119.937 64.0323 118.403 62.2503 115.957 61.3783C115.135 61.0353 114.187 60.8583 113.234 60.8583C112.581 60.8583 111.615 60.9473 110.701 61.3743C108.741 62.2873 106.984 62.7853 105.48 62.8583C104.686 62.8163 104.122 62.6413 103.755 62.4783C103.798 61.6953 103.85 60.8943 103.906 60.0573L103.925 59.7003C104.462 51.2283 105.13 40.6843 102.327 34.4223C100.411 30.1373 97.84 26.4513 94.675 23.4603C92.019 20.9533 88.938 18.9253 85.511 17.4223C79.547 14.8143 73.985 14.4243 71.202 14.4243H71.198C71.087 14.4243 70.987 14.4243 70.891 14.4273C70.12 14.4333 68.852 14.4463 68.741 14.4463C65.963 14.4463 60.395 14.8383 54.425 17.4683C51.014 18.9683 47.941 21.0003 45.297 23.5053C42.148 26.4873 39.578 30.1643 37.671 34.4343C34.872 40.6923 35.536 51.2283 36.069 59.6963V59.7073C36.129 60.6113 36.187 61.5603 36.243 62.4823C35.83 62.6693 35.17 62.8673 34.188 62.8673C32.608 62.8673 30.733 62.3653 28.61 61.3733C27.986 61.0823 27.269 60.9383 26.487 60.9383C25.225 60.9383 23.895 61.3083 22.738 61.9843C21.282 62.8363 20.344 64.0373 20.09 65.3713C19.923 66.2523 19.931 67.9993 21.871 69.7643C22.94 70.7343 24.511 71.6313 26.535 72.4323C27.067 72.6363 27.695 72.8393 28.368 73.0483C30.681 73.7833 34.192 74.8933 35.106 77.0423C35.571 78.1293 35.373 79.5603 34.518 81.2923C34.494 81.3423 34.469 81.3883 34.45 81.4363C34.235 81.9333 32.243 86.4403 28.148 91.1933C25.827 93.8913 23.266 96.1523 20.543 97.9013C17.224 100.045 13.63 101.444 9.86101 102.062C8.38201 102.303 7.32801 103.619 7.41101 105.112C7.43201 105.539 7.53801 105.968 7.71001 106.384L7.71401 106.394C8.31501 107.786 9.70201 108.97 11.952 110.017C14.711 111.291 18.825 112.365 24.196 113.208C24.467 113.719 24.75 115.013 24.944 115.897C25.147 116.837 25.362 117.803 25.665 118.831C25.99 119.944 26.842 121.274 29.019 121.274C29.846 121.274 30.8 121.091 31.898 120.876C33.507 120.56 35.714 120.128 38.465 120.128C39.986 120.128 41.574 120.263 43.164 120.527C46.233 121.034 48.873 122.898 51.935 125.056C56.415 128.215 61.481 131.785 69.229 131.785C69.44 131.785 69.652 131.781 69.861 131.763C70.116 131.775 70.434 131.785 70.768 131.785C78.516 131.785 83.585 128.211 88.058 125.056L88.066 125.05C91.124 122.896 93.768 121.035 96.833 120.528C98.423 120.264 100.006 120.129 101.533 120.129C104.16 120.129 106.24 120.463 108.1 120.825C109.312 121.063 110.254 121.178 110.978 121.178H111.05H111.121C112.715 121.178 113.888 120.305 114.337 118.777C114.631 117.771 114.846 116.825 115.053 115.871C115.236 115.044 115.527 113.716 115.797 113.193C121.172 112.352 125.286 111.283 128.045 110.005C130.292 108.965 131.675 107.781 132.274 106.394C132.459 105.978 132.56 105.546 132.586 105.107C132.671 103.616 131.617 102.304 130.135 102.061Z" fill="#FFEB5A"/>
<path d="M70.0013 14.4365C69.3953 14.4415 68.8163 14.4475 68.7433 14.4475C65.9653 14.4475 60.3973 14.8395 54.4273 17.4695C51.0163 18.9695 47.9433 21.0015 45.2993 23.5065C42.1503 26.4885 39.5803 30.1655 37.6733 34.4355C34.8743 40.6935 35.5383 51.2295 36.0713 59.6975V59.7085C36.1313 60.6125 36.1893 61.5615 36.2453 62.4835C35.8323 62.6705 35.1723 62.8685 34.1903 62.8685C32.6103 62.8685 30.7353 62.3665 28.6123 61.3745C27.9883 61.0835 27.2713 60.9395 26.4893 60.9395C25.2273 60.9395 23.8973 61.3095 22.7403 61.9855C21.2843 62.8375 20.3463 64.0385 20.0923 65.3725C19.9253 66.2535 19.9333 68.0005 21.8733 69.7655C22.9423 70.7355 24.5133 71.6325 26.5373 72.4335C27.0693 72.6375 27.6973 72.8405 28.3703 73.0495C30.6833 73.7845 34.1943 74.8945 35.1083 77.0435C35.5733 78.1305 35.3753 79.5615 34.5203 81.2935C34.4963 81.3435 34.4713 81.3895 34.4523 81.4375C34.2373 81.9345 32.2453 86.4415 28.1503 91.1945C25.8293 93.8925 23.2683 96.1535 20.5453 97.9025C17.2263 100.047 13.6323 101.446 9.86333 102.064C8.38433 102.305 7.33033 103.621 7.41333 105.114C7.43433 105.541 7.54033 105.97 7.71233 106.386L7.71633 106.396C8.31733 107.788 9.70433 108.972 11.9543 110.019C14.7133 111.293 18.8273 112.367 24.1983 113.21C24.4693 113.721 24.7523 115.015 24.9463 115.899C25.1493 116.839 25.3643 117.805 25.6673 118.833C25.9923 119.946 26.8443 121.276 29.0213 121.276C29.8483 121.276 30.8023 121.093 31.9003 120.878C33.5093 120.562 35.7163 120.13 38.4673 120.13C39.9883 120.13 41.5763 120.265 43.1663 120.529C46.2353 121.036 48.8753 122.9 51.9373 125.058C56.4173 128.217 61.4833 131.787 69.2313 131.787C69.4423 131.787 69.6543 131.783 69.8633 131.765C69.9043 131.767 69.9563 131.768 70.0013 131.77V14.4365Z" fill="#FFF19C"/>
<path d="M103.926 65.1284L103.907 65.4854C103.85 66.3224 103.799 67.1234 103.756 67.9064C104.122 68.0704 104.687 68.2454 105.481 68.2864C106.985 68.2134 108.742 67.7164 110.702 66.8024C111.616 66.3764 112.582 66.2864 113.235 66.2864C114.188 66.2864 115.135 66.4644 115.958 66.8064C117.248 67.2664 118.274 67.9844 118.972 68.8484C119.809 67.7524 119.992 66.7354 119.978 66.0354C119.938 64.0324 118.404 62.2504 115.958 61.3784C115.136 61.0354 114.188 60.8584 113.235 60.8584C112.582 60.8584 111.616 60.9474 110.702 61.3744C108.742 62.2874 106.985 62.7854 105.481 62.8584C104.892 62.8274 104.432 62.7234 104.083 62.6044C104.031 63.4604 103.979 64.3064 103.926 65.1284Z" fill="white"/>
<path d="M7.71487 106.396C7.94587 106.932 8.29687 107.437 8.76787 107.916C9.09187 107.709 9.45887 107.558 9.86287 107.492C13.6319 106.874 17.2249 105.474 20.5449 103.332C23.2689 101.582 25.8289 99.3221 28.1499 96.6231C32.2449 91.8701 34.2369 87.3641 34.4519 86.8671C34.4719 86.8191 34.4959 86.7741 34.5199 86.7231C35.3739 84.9931 35.5729 83.5611 35.1079 82.4741C34.9539 82.1111 34.7199 81.7801 34.4359 81.4741C34.1699 82.0851 32.1809 86.5161 28.1499 91.1961C25.8289 93.8941 23.2679 96.1551 20.5449 97.9041C17.2259 100.048 13.6319 101.447 9.86287 102.065C8.38387 102.306 7.32987 103.622 7.41287 105.115C7.43387 105.542 7.53987 105.971 7.71187 106.387L7.71487 106.396Z" fill="white"/>
<path d="M105.566 81.4663C105.281 81.7733 105.047 82.1043 104.892 82.4673C104.431 83.5583 104.625 84.9893 105.48 86.7193C105.504 86.7673 105.529 86.8143 105.552 86.8643C105.862 87.5903 113.4 104.737 130.134 107.488C130.536 107.554 130.903 107.704 131.227 107.909C131.695 107.432 132.045 106.929 132.276 106.394C132.461 105.978 132.562 105.546 132.588 105.107C132.671 103.614 131.617 102.302 130.135 102.06C113.536 99.3323 105.989 82.4493 105.566 81.4663Z" fill="white"/>
<path d="M22.739 67.415C23.896 66.738 25.226 66.369 26.488 66.369C27.27 66.369 27.987 66.513 28.611 66.803C30.734 67.794 32.609 68.297 34.189 68.297C35.17 68.297 35.831 68.099 36.244 67.912C36.188 66.989 36.13 66.04 36.07 65.137V65.125C36.017 64.306 35.966 63.463 35.916 62.611C35.507 62.75 34.945 62.868 34.189 62.868C32.609 62.868 30.734 62.366 28.611 61.374C27.987 61.083 27.27 60.939 26.488 60.939C25.226 60.939 23.896 61.309 22.739 61.985C21.283 62.837 20.345 64.038 20.091 65.372C19.953 66.098 19.953 67.415 21.037 68.843C21.477 68.306 22.048 67.82 22.739 67.415Z" fill="white"/>
<path d="M37.672 39.8619C39.579 35.5919 42.149 31.9159 45.298 28.9329C47.942 26.4289 51.015 24.3969 54.426 22.8959C60.397 20.2669 65.964 19.8739 68.742 19.8739C68.853 19.8739 70.121 19.8599 70.892 19.8539C70.988 19.8519 71.087 19.8519 71.199 19.8519H71.203C73.985 19.8519 79.548 20.2419 85.512 22.8499C88.939 24.3519 92.02 26.3799 94.676 28.8869C97.841 31.8779 100.412 35.5639 102.328 39.8489C103.68 42.8699 104.22 46.8879 104.361 51.1879C104.535 44.9509 104.239 38.6909 102.328 34.4209C100.412 30.1359 97.841 26.4499 94.676 23.4589C92.02 20.9519 88.939 18.9239 85.512 17.4209C79.548 14.8129 73.986 14.4229 71.203 14.4229H71.199C71.088 14.4229 70.988 14.4229 70.892 14.4259C70.121 14.4319 68.853 14.4449 68.742 14.4449C65.964 14.4449 60.396 14.8369 54.426 17.4669C51.015 18.9669 47.942 20.9989 45.298 23.5039C42.149 26.4859 39.579 30.1629 37.672 34.4329C35.761 38.7059 35.465 44.9739 35.639 51.2149C35.779 46.9119 36.319 42.8869 37.672 39.8619Z" fill="white"/>
<path d="M130.135 102.061C113.401 99.3113 105.863 82.1633 105.553 81.4373C105.53 81.3873 105.505 81.3393 105.481 81.2923C104.627 79.5623 104.432 78.1313 104.893 77.0403C105.807 74.8943 109.314 73.7853 111.628 73.0503C112.304 72.8403 112.936 72.6383 113.465 72.4343C115.746 71.5333 117.38 70.5573 118.457 69.4483C119.746 68.1293 119.993 66.8633 119.977 66.0353C119.937 64.0323 118.403 62.2503 115.957 61.3783C115.135 61.0353 114.187 60.8583 113.234 60.8583C112.581 60.8583 111.615 60.9473 110.701 61.3743C108.741 62.2873 106.984 62.7853 105.48 62.8583C104.686 62.8163 104.122 62.6413 103.755 62.4783C103.798 61.6953 103.85 60.8943 103.906 60.0573L103.925 59.7003C104.462 51.2283 105.13 40.6843 102.327 34.4223C100.411 30.1373 97.84 26.4513 94.675 23.4603C92.019 20.9533 88.938 18.9253 85.511 17.4223C79.547 14.8143 73.985 14.4243 71.202 14.4243H71.198C71.087 14.4243 70.987 14.4243 70.891 14.4273C70.12 14.4333 68.852 14.4463 68.741 14.4463C65.963 14.4463 60.395 14.8383 54.425 17.4683C51.014 18.9683 47.941 21.0003 45.297 23.5053C42.148 26.4873 39.578 30.1643 37.671 34.4343C34.872 40.6923 35.536 51.2283 36.069 59.6963V59.7073C36.129 60.6113 36.187 61.5603 36.243 62.4823C35.83 62.6693 35.17 62.8673 34.188 62.8673C32.608 62.8673 30.733 62.3653 28.61 61.3733C27.986 61.0823 27.269 60.9383 26.487 60.9383C25.225 60.9383 23.895 61.3083 22.738 61.9843C21.282 62.8363 20.344 64.0373 20.09 65.3713C19.923 66.2523 19.931 67.9993 21.871 69.7643C22.94 70.7343 24.511 71.6313 26.535 72.4323C27.067 72.6363 27.695 72.8393 28.368 73.0483C30.681 73.7833 34.192 74.8933 35.106 77.0423C35.571 78.1293 35.373 79.5603 34.518 81.2923C34.494 81.3423 34.469 81.3883 34.45 81.4363C34.235 81.9333 32.243 86.4403 28.148 91.1933C25.827 93.8913 23.266 96.1523 20.543 97.9013C17.224 100.045 13.63 101.444 9.86101 102.062C8.38201 102.303 7.32801 103.619 7.41101 105.112C7.43201 105.539 7.53801 105.968 7.71001 106.384L7.71401 106.394C8.31501 107.786 9.70201 108.97 11.952 110.017C14.711 111.291 18.825 112.365 24.196 113.208C24.467 113.719 24.75 115.013 24.944 115.897C25.147 116.837 25.362 117.803 25.665 118.831C25.99 119.944 26.842 121.274 29.019 121.274C29.846 121.274 30.8 121.091 31.898 120.876C33.507 120.56 35.714 120.128 38.465 120.128C39.986 120.128 41.574 120.263 43.164 120.527C46.233 121.034 48.873 122.898 51.935 125.056C56.415 128.215 61.481 131.785 69.229 131.785C69.44 131.785 69.652 131.781 69.861 131.763C70.116 131.775 70.434 131.785 70.768 131.785C78.516 131.785 83.585 128.211 88.058 125.056L88.066 125.05C91.124 122.896 93.768 121.035 96.833 120.528C98.423 120.264 100.006 120.129 101.533 120.129C104.16 120.129 106.24 120.463 108.1 120.825C109.312 121.063 110.254 121.178 110.978 121.178H111.05H111.121C112.715 121.178 113.888 120.305 114.337 118.777C114.631 117.771 114.846 116.825 115.053 115.871C115.236 115.044 115.527 113.716 115.797 113.193C121.172 112.352 125.286 111.283 128.045 110.005C130.292 108.965 131.675 107.781 132.274 106.394C132.459 105.978 132.56 105.546 132.586 105.107C132.671 103.616 131.617 102.304 130.135 102.061Z" stroke="#33363A" stroke-width="3" stroke-miterlimit="10" stroke-linecap="round" stroke-linejoin="round"/>
<path d="M29.921 108.439C29.921 108.439 23.915 111.978 24.663 114.668" stroke="#33363A" stroke-width="3" stroke-miterlimit="10" stroke-linecap="round" stroke-linejoin="round"/>
<path d="M40.571 88.8243C40.571 88.8243 43.138 79.1013 31.738 74.2783" stroke="#33363A" stroke-width="3" stroke-miterlimit="10" stroke-linecap="round" stroke-linejoin="round"/>
<path d="M37.323 96.1036L38.31 94.8696" stroke="#33363A" stroke-width="3" stroke-miterlimit="10" stroke-linecap="round" stroke-linejoin="round"/>
<path d="M109.854 108.439C109.854 108.439 115.86 111.978 115.112 114.668" stroke="#33363A" stroke-width="3" stroke-miterlimit="10" stroke-linecap="round" stroke-linejoin="round"/>
<path d="M99.204 88.8243C99.204 88.8243 96.637 79.1013 108.037 74.2783" stroke="#33363A" stroke-width="3" stroke-miterlimit="10" stroke-linecap="round" stroke-linejoin="round"/>
<path d="M102.452 96.1036L101.466 94.8696" stroke="#33363A" stroke-width="3" stroke-miterlimit="10" stroke-linecap="round" stroke-linejoin="round"/>
<path d="M112.617 22.0265L113.917 20.7275" stroke="#33363A" stroke-width="3" stroke-miterlimit="10" stroke-linecap="round" stroke-linejoin="round"/>
<path d="M116.738 17.9067L116.678 17.9647" stroke="#33363A" stroke-width="3" stroke-miterlimit="10" stroke-linecap="round" stroke-linejoin="round"/>
<path d="M100.488 14.0425V12.2065" stroke="#33363A" stroke-width="3" stroke-miterlimit="10" stroke-linecap="round" stroke-linejoin="round"/>
<path d="M100.486 8.2124L100.488 8.2984" stroke="#33363A" stroke-width="3" stroke-miterlimit="10" stroke-linecap="round" stroke-linejoin="round"/>
<path d="M120.602 34.1582H122.441" stroke="#33363A" stroke-width="3" stroke-miterlimit="10" stroke-linecap="round" stroke-linejoin="round"/>
<path d="M126.432 34.1582H126.348" stroke="#33363A" stroke-width="3" stroke-miterlimit="10" stroke-linecap="round" stroke-linejoin="round"/>
<path d="M27.383 22.2091L26.083 20.9111" stroke="#33363A" stroke-width="3" stroke-miterlimit="10" stroke-linecap="round" stroke-linejoin="round"/>
<path d="M23.262 18.0879L23.32 18.1489" stroke="#33363A" stroke-width="3" stroke-miterlimit="10" stroke-linecap="round" stroke-linejoin="round"/>
<path d="M19.396 34.3394H17.562" stroke="#33363A" stroke-width="3" stroke-miterlimit="10" stroke-linecap="round" stroke-linejoin="round"/>
<path d="M13.568 34.3418H13.653" stroke="#33363A" stroke-width="3" stroke-miterlimit="10" stroke-linecap="round" stroke-linejoin="round"/>
<path d="M39.514 14.2267V12.3877" stroke="#33363A" stroke-width="3" stroke-miterlimit="10" stroke-linecap="round" stroke-linejoin="round"/>
<path d="M39.514 8.39453V8.48053" stroke="#33363A" stroke-width="3" stroke-miterlimit="10" stroke-linecap="round" stroke-linejoin="round"/>
</svg>
