<svg width="140" height="140" viewBox="0 0 140 140" fill="none" xmlns="http://www.w3.org/2000/svg">
<path d="M70.3092 6.5625H70.2742C35.3004 6.5625 6.85419 35.0175 6.85419 70C6.85419 83.8731 11.3254 96.74 18.9336 107.183L11.0279 130.756L35.4098 122.959C45.4417 129.601 57.4073 133.442 70.3092 133.442C105.283 133.438 133.729 104.982 133.729 70C133.729 35.0175 105.283 6.5625 70.3092 6.5625Z" fill="white"/>
<path d="M35.4098 122.955C45.4417 129.596 57.4073 133.438 70.3092 133.438C105.283 133.438 133.729 104.982 133.729 70C133.729 64.1637 132.872 58.5331 131.389 53.1606C122.057 29.7412 99.2017 13.125 72.4967 13.125H72.4617C37.4879 13.125 9.04167 41.58 9.04167 76.5625C9.04167 78.3519 8.66104 80.1675 8.03979 81.9919C9.82042 91.2537 13.5829 99.8287 18.9335 107.179L11.0279 130.751L35.4098 122.955Z" fill="#65F0CD"/>
<path d="M70.3092 135.625C57.7617 135.625 45.6079 132.077 35.0904 125.357L11.6929 132.834C10.9098 133.083 10.0479 132.873 9.46606 132.287C8.88856 131.701 8.68731 130.834 8.95419 130.056L16.5011 107.542C8.75731 96.5169 4.66669 83.5625 4.66669 70C4.66669 52.1675 11.7192 35.4769 24.5248 23.0037C25.3867 22.1637 26.7736 22.1813 27.6179 23.0431C28.4579 23.9094 28.4404 25.2962 27.5742 26.1362C15.6261 37.7825 9.04169 53.3575 9.04169 70C9.04169 83.0113 13.0754 95.4231 20.7011 105.893C21.1167 106.466 21.2304 107.205 21.0029 107.879L14.4754 127.356L34.7448 120.877C35.3748 120.671 36.0661 120.772 36.6217 121.135C46.6186 127.75 58.2692 131.25 70.3092 131.25C104.075 131.25 131.542 103.775 131.542 70C131.542 36.2294 104.075 8.75 70.3092 8.75C70.3048 8.75 70.3004 8.75 70.2961 8.75C60.8154 8.75 51.7548 10.8544 43.3286 15.0019C42.2436 15.5312 40.9354 15.0894 40.4017 14.0087C39.8679 12.9281 40.3098 11.6113 41.3992 11.0775C50.4292 6.6325 60.1504 4.375 70.2742 4.375C106.482 4.375 135.917 33.8144 135.917 70C135.917 106.186 106.482 135.625 70.3092 135.625Z" fill="#455A64"/>
<path d="M104.053 84.6291C102.19 83.6973 93.1291 79.2216 91.4141 78.6223C89.7341 77.9879 88.1328 78.2154 86.8685 80.0048C85.0747 82.5029 83.3247 85.0404 81.9072 86.5673C80.7872 87.7616 78.9585 87.9104 77.436 87.276C75.3841 86.4185 69.6441 84.4016 62.561 78.1016C57.0791 73.2191 53.3516 67.1379 52.2666 65.3135C51.186 63.4498 52.1572 62.3648 53.0147 61.3585C53.9466 60.2035 54.8391 59.381 55.771 58.3004C56.7072 57.2154 57.2279 56.6598 57.8272 55.391C58.4616 54.1616 58.011 52.8929 57.5604 51.9566C57.1141 51.0248 53.3866 41.9248 51.8554 38.2323C50.626 35.2879 49.6941 35.1741 47.8304 35.0998C47.1916 35.0648 46.4872 35.0254 45.7041 35.0254C43.2804 35.0254 40.7472 35.7341 39.2204 37.3004C37.3522 39.2035 32.7322 43.6398 32.7322 52.7398C32.7322 61.8398 39.3691 70.6423 40.266 71.876C41.1979 73.1054 53.2029 92.0491 71.8447 99.771C86.4222 105.813 90.7491 105.253 94.0653 104.544C98.9128 103.499 104.99 99.9154 106.521 95.5929C108.052 91.266 108.052 87.5735 107.602 86.7904C107.147 86.0116 105.917 85.5654 104.053 84.6291Z" fill="white"/>
<path d="M90.4253 107.156C86.0022 107.156 79.8291 105.45 71.0047 101.792C59.4854 97.0235 48.0666 87.031 38.8485 73.6654L38.5204 73.1973C35.4754 69.0367 30.5447 61.0654 30.5447 52.7442C30.5447 42.9923 35.4229 38.0442 37.5097 35.931C39.4741 33.9142 42.4097 32.8423 45.7085 32.8423C46.5397 32.8423 47.2835 32.8817 47.9616 32.921C50.7397 33.0304 52.3497 33.7304 53.881 37.3923L55.4691 41.2423C57.1491 45.3154 59.2185 50.3423 59.5422 51.0204C59.901 51.7598 60.9904 54.0304 59.7785 56.3929C59.131 57.7754 58.4966 58.506 57.626 59.5123C57.0135 60.2167 56.6066 60.6542 56.191 61.0917C55.7097 61.6079 55.2197 62.1154 54.7297 62.7323C53.8854 63.721 53.8854 63.721 54.1697 64.2154C55.7885 66.9498 59.2316 72.1998 64.0266 76.4654C70.2479 81.9998 75.2747 84.0342 77.6897 85.0142L78.2891 85.2592C78.9235 85.5217 79.7241 85.7098 80.3235 85.0754C81.4085 83.9073 82.7822 81.9867 84.2347 79.9523L85.1054 78.7317C86.6322 76.5748 88.5135 76.1198 89.8216 76.1198C90.5872 76.1198 91.3835 76.2729 92.1972 76.5792C94.2316 77.2879 104.937 82.621 105.047 82.6735L106.075 83.1767C107.606 83.9117 108.813 84.4935 109.505 85.7098C110.507 87.451 110.113 92.0185 108.59 96.3279C106.766 101.486 99.9847 105.515 94.5335 106.688C93.4485 106.915 92.1578 107.156 90.4253 107.156ZM45.7041 37.2173C43.6391 37.2173 41.7579 37.8385 40.7866 38.8317C38.7697 40.8792 34.9154 44.786 34.9154 52.7442C34.9154 57.911 37.4747 64.3729 41.9372 70.4673L42.4447 71.1892C51.186 83.8679 61.9222 93.3048 72.6716 97.7542C80.9535 101.189 86.5928 102.785 90.421 102.785C91.7335 102.785 92.7091 102.602 93.6016 102.414C97.8585 101.495 103.218 98.3492 104.447 94.871C105.777 91.1217 105.751 88.2385 105.593 87.6654C105.585 87.801 104.797 87.4292 104.163 87.1229L103.073 86.5892C100.007 85.0535 92.0791 81.1817 90.6922 80.696C90.3247 80.556 90.0447 80.4992 89.8085 80.4992C89.6116 80.4992 89.2047 80.4992 88.6535 81.2779L87.7785 82.5029C86.2429 84.6554 84.7947 86.6854 83.5085 88.0679C81.8591 89.831 79.0285 90.321 76.5916 89.306L76.036 89.0785C73.5991 88.0942 67.8897 85.7842 61.1041 79.7467C55.8716 75.0829 52.1397 69.4085 50.381 66.4379C48.5304 63.2485 50.4072 61.0523 51.3085 59.9979C51.8816 59.2848 52.4416 58.6942 53.0016 58.0992C53.3691 57.7098 53.7366 57.3204 54.1129 56.8829C55.0972 55.7498 55.421 55.3735 55.8454 54.4679C55.9722 54.2185 56.0422 53.8642 55.5872 52.9192C55.2547 52.2192 53.1285 47.0829 51.4179 42.9179L49.8341 39.081C49.1122 37.3485 49.1122 37.3485 47.7385 37.296C47.1085 37.2523 46.4435 37.2173 45.7041 37.2173Z" fill="#455A64"/>
<path d="M33.1042 19.6875C34.3123 19.6875 35.2917 18.7081 35.2917 17.5C35.2917 16.2919 34.3123 15.3125 33.1042 15.3125C31.8961 15.3125 30.9167 16.2919 30.9167 17.5C30.9167 18.7081 31.8961 19.6875 33.1042 19.6875Z" fill="#455A64"/>
</svg>
